HIERARCHY
ROOT Hips
{
	OFFSET 0.00000 0.00000 0.00000
	CHANNELS 6 Xposition Yposition Zposition Yrotation Zrotation Xrotation 
	JOINT Lumbar
	{
		OFFSET 0 0 0
		CHANNELS 3 Zrotation Xrotation Yrotation
		JOINT Neck
		{
			OFFSET 0.00 0.2701 0.00
			CHANNELS 3 Zrotation Xrotation Yrotation
			End Site
			{
				OFFSET 0.00 0.1379 0.00
			}
		}
		JOINT RightShoulder
		{
			OFFSET 0.0119 0.2289 0.1181
			CHANNELS 3 Zrotation Xrotation Yrotation
			JOINT RightElbow
			{
				OFFSET 0.00 -0.1475 0.00
				CHANNELS 2 Zrotation Yrotation
				JOINT RightWrist
				{
					OFFSET 0.00 -0.1605 0.00
					CHANNELS 2 Zrotation Xrotation
					End Site
					{
						OFFSET 0.0040 -0.1068 0.0006
					}
				}
			}
		}
		JOINT LeftShoulder
		{
			OFFSET 0.0119 0.2289 -0.1181
			CHANNELS 3 Zrotation Xrotation Yrotation
			JOINT LeftElbow
			{
				OFFSET 0.00 -0.1475 0.00
				CHANNELS 2 Zrotation Yrotation
				JOINT LeftWrist
				{
					OFFSET 0.00 -0.1605 0.00
					CHANNELS 2 Zrotation Xrotation
					End Site
					{
						OFFSET 0.0040 -0.1068 -0.0006
					}
				}
			}
		}
	}
	JOINT RightHip
	{
		OFFSET 0.0316 -0.0424 0.0458
		CHANNELS 3 Zrotation Xrotation Yrotation
		JOINT RightKnee
		{
			OFFSET 0.00 -0.2438 0.00
			CHANNELS 1 Zrotation
			JOINT RightAnkle
			{
				OFFSET 0.00 -0.2449 0.00
				CHANNELS 3 Zrotation Xrotation Yrotation
				End Site
				{
					OFFSET 0.1237 -0.0542 0.0051
				}
			}
		}
	}
	JOINT LeftHip
	{
		OFFSET 0.0316 -0.0424 -0.0458
		CHANNELS 3 Zrotation Xrotation Yrotation
		JOINT LeftKnee
		{
			OFFSET 0.00 -0.2438 0.00
			CHANNELS 1 Zrotation
			JOINT LeftAnkle
			{
				OFFSET 0.00 -0.2449 0.00
				CHANNELS 3 Zrotation Xrotation Yrotation
				End Site
				{
					OFFSET 0.1237 -0.0542 -0.0051
				}
			}
		}
	}
}
MOTION
Frames: 26
Frame Time: 0.02
-0 0.57926 -0 181.17928 0 -5.08125 3.18967 5.04537 -3.38173 -37.34084 1.7673 4.1901 -44.28959 -70.12359 -79.74763 13.77869 41.98485 -48.44821 1.52314 1.13986 72.63403 80.6648 18.87594 -72.60785 -33.52441 1.92879 -3.13506 6.06208 -2.74681 -8.50245 -0.36228 -3.49369 -8.89505 -2.40378 7.53211 -0.66493 -7.37299 5.02844 4.77907 8.84775
0.00011 0.57926 0.00013 181.16066 0 -5.08757 3.19754 5.06202 -3.36406 -37.35292 1.76791 4.19736 -43.87426 -70.15712 -79.76888 13.84705 42.03463 -48.19902 1.52389 0.82146 72.41285 80.66917 18.85134 -72.12396 -33.28955 1.84731 -3.12215 6.0529 -2.75666 -8.50236 -0.36381 -3.48716 -8.87201 -2.39767 7.52627 -0.65415 -7.37314 5.0332 4.78491 8.84452
0.00021 0.57925 0.00027 181.14219 0 -5.09382 3.2056 5.07848 -3.34643 -37.36512 1.76846 4.20463 -43.45967 -70.19024 -79.79002 13.91521 42.08334 -47.95085 1.52486 0.50606 72.19243 80.67339 18.82698 -71.64303 -33.0549 1.76628 -3.10935 6.04371 -2.76648 -8.50225 -0.36529 -3.48069 -8.84914 -2.39161 7.5204 -0.64345 -7.37324 5.03795 4.79072 8.84131
0.00031 0.57925 0.0004 181.12397 0 -5.09991 3.2144 5.0944 -3.32868 -37.37783 1.76892 4.21209 -43.04461 -70.22227 -79.81087 13.98297 42.1281 -47.70465 1.52671 0.19866 71.97285 80.677 18.80324 -71.16847 -32.81897 1.68617 -3.09704 6.03446 -2.77626 -8.50168 -0.36661 -3.47436 -8.82657 -2.386 7.51438 -0.63301 -7.37275 5.04259 4.7965 8.83829
0.00043 0.57924 0.00054 181.10418 0 -5.10694 3.21915 5.11329 -3.31146 -37.38771 1.77001 4.21862 -42.6328 -70.26037 -79.8332 14.05253 42.19359 -47.44845 1.52389 -0.15225 71.74876 80.68378 18.77612 -70.65922 -32.59004 1.60106 -3.08237 6.02558 -2.78628 -8.50311 -0.36884 -3.46726 -8.80222 -2.37834 7.50919 -0.62122 -7.37491 5.04769 4.80251 8.83443
0.00052 0.57923 0.00067 181.0879 0 -5.11193 3.23258 5.12581 -3.29321 -37.40367 1.76965 4.22709 -42.21403 -70.2854 -79.85242 14.11839 42.21527 -47.21335 1.53093 -0.41002 71.53448 80.68386 18.75623 -70.22449 -32.34638 1.52672 -3.07255 6.0159 -2.79574 -8.50059 -0.36911 -3.4618 -8.78177 -2.3748 7.5022 -0.61231 -7.37177 5.05189 4.80796 8.83224
0.00055 0.57922 0.0008 181.07999 0 -5.11132 3.27016 5.12082 -3.27067 -37.43699 1.76629 4.2413 -41.76739 -70.27544 -79.86285 14.17406 42.11147 -47.03447 1.56673 -0.41378 71.34185 80.66472 18.75615 -69.98634 -32.05468 1.48035 -3.07754 6.00409 -2.80402 -8.48455 -0.36383 -3.46075 -8.77103 -2.38473 7.49025 -0.6113 -7.35077 5.05286 4.81257 8.83581
0.00056 0.5792 0.00092 181.07586 0 -5.10863 3.31648 5.10937 -3.2473 -37.47654 1.7613 4.25739 -41.31461 -70.25212 -79.87019 14.22611 41.96425 -46.87705 1.61224 -0.32236 71.15994 80.63899 18.76345 -69.82525 -31.749 1.44521 -3.08712 5.99145 -2.81164 -8.46504 -0.35657 -3.46137 -8.76443 -2.39842 7.47644 -0.61327 -7.32497 5.05305 4.81651 8.84092
0.00058 0.57918 0.00104 181.07086 0 -5.10685 3.35877 5.10082 -3.22526 -37.51271 1.75641 4.27239 -40.87002 -70.23415 -79.87904 14.27982 41.83955 -46.71096 1.65242 -0.27315 70.97644 80.61664 18.76741 -69.63413 -31.45431 1.40597 -3.09376 5.97912 -2.81936 -8.44875 -0.3503 -3.46127 -8.7566 -2.40904 7.46346 -0.61385 -7.30344 5.05411 4.82028 8.84452
0.0006 0.57916 0.00116 181.06233 0 -5.10521 3.40145 5.09244 -3.19932 -37.55053 1.75416 4.28843 -40.40364 -70.21905 -79.88735 14.33327 41.70265 -46.54044 1.69654 -0.23069 70.77908 80.5924 18.77112 -69.42039 -31.14066 1.36224 -3.10423 5.96706 -2.82802 -8.42533 -0.3437 -3.46101 -8.74597 -2.42545 7.45058 -0.61436 -7.27312 5.05307 4.82596 8.85134
0.00062 0.57915 0.00128 181.06198 0 -5.10278 3.44521 5.08214 -3.18114 -37.58721 1.74609 4.30267 -39.98002 -70.19499 -79.89619 14.38664 41.58139 -46.3841 1.73468 -0.1486 70.61315 80.57083 18.77737 -69.27409 -30.86245 1.33083 -3.10755 5.95425 -2.83442 -8.41617 -0.33727 -3.46148 -8.74223 -2.43062 7.43702 -0.61599 -7.25992 5.0561 4.82761 8.85208
0.00065 0.57914 0.00141 181.08394 0 -5.09879 3.49109 5.06841 -3.18614 -37.61238 1.7219 4.31204 -39.68307 -70.14749 -79.90649 14.43943 41.51045 -46.26228 1.75429 -0.00402 70.5304 80.5565 18.78683 -69.28053 -30.69138 1.32846 -3.09208 5.93957 -2.83622 -8.44531 -0.33214 -3.4634 -8.7557 -2.40446 7.42217 -0.61768 -7.29555 5.07165 4.8174 8.8335
0.0007 0.57914 0.00154 181.11388 0 -5.09407 3.53737 5.05291 -3.19871 -37.63754 1.69201 4.31934 -39.42631 -70.09156 -79.91783 14.49306 41.45819 -46.15365 1.76736 0.18271 70.47865 80.54601 18.79915 -69.35686 -30.55525 1.33876 -3.06883 5.92416 -2.8355 -8.48926 -0.32719 -3.46602 -8.77609 -2.36667 7.40667 -0.62079 -7.34849 5.09112 4.80333 8.80915
0.00074 0.57914 0.00167 181.13973 0 -5.08962 3.58279 5.03799 -3.20682 -37.66705 1.66501 4.32733 -39.14863 -70.04107 -79.92887 14.54642 41.39867 -46.03887 1.7833 0.36422 70.41385 80.53414 18.8112 -69.40833 -30.3994 1.34437 -3.04785 5.90908 -2.83496 -8.52771 -0.32189 -3.46847 -8.79381 -2.33386 7.39137 -0.62478 -7.39324 5.10812 4.79163 8.78892
0.00076 0.57913 0.00181 181.16765 0 -5.08535 3.63198 5.02377 -3.21917 -37.67805 1.63664 4.3368 -38.88897 -69.98426 -79.93805 14.59688 41.3292 -45.92642 1.80046 0.48559 70.34678 80.51803 18.81833 -69.42536 -30.25973 1.34478 -3.03254 5.89395 -2.83848 -8.56091 -0.3176 -3.47042 -8.80967 -2.30271 7.37637 -0.62251 -7.43918 5.12807 4.77731 8.76251
0.00084 0.57913 0.00193 181.19314 0 -5.08058 3.67257 5.00778 -3.22454 -37.728 1.60983 4.34223 -38.5926 -69.93763 -79.95269 14.65652 41.28955 -45.8108 1.81283 0.74678 70.28946 80.51485 18.83736 -69.53973 -30.0943 1.36026 -3.00329 5.87878 -2.83297 -8.60854 -0.31135 -3.47347 -8.83101 -2.26499 7.36064 -0.6335 -7.48685 5.14274 4.76752 8.74747
0.00107 0.57913 0.00204 181.20966 0 -5.07452 3.69494 4.98715 -3.20848 -37.88172 1.58837 4.3407 -38.25374 -69.92959 -79.97173 14.7165 41.29996 -45.68974 1.81754 1.33437 70.26911 80.51512 18.87903 -69.81682 -29.85423 1.40246 -2.9392 5.86368 -2.80287 -8.69317 -0.29912 -3.48024 -8.8657 -2.21438 7.34306 -0.68146 -7.53478 5.14256 4.77128 8.766
0.00136 0.57913 0.00214 181.2235 0 -5.06805 3.7072 4.96491 -3.18518 -38.07538 1.5687 4.33454 -37.85931 -69.9295 -79.99879 14.79028 41.34996 -45.56139 1.8163 2.07008 70.25329 80.53081 18.93403 -70.20349 -29.58642 1.46148 -2.86088 5.84858 -2.76377 -8.79176 -0.28502 -3.48799 -8.90572 -2.15696 7.3248 -0.74253 -7.58395 5.13686 4.77965 8.79595
0.00163 0.57912 0.00224 181.23878 0 -5.06183 3.72078 4.94354 -3.16541 -38.25316 1.54851 4.32794 -37.45095 -69.92167 -80.02825 14.87407 41.39411 -45.43492 1.81581 2.76976 70.22487 80.56428 18.98953 -70.60077 -29.3278 1.52059 -2.78808 5.83345 -2.72907 -8.88342 -0.27212 -3.49467 -8.94323 -2.10122 7.30685 -0.79722 -7.6327 5.13321 4.78592 8.82027
0.00184 0.57912 0.00235 181.25342 0 -5.05523 3.74961 4.9214 -3.14495 -38.42117 1.52709 4.33167 -37.22768 -69.93538 -80.02971 14.88935 41.36783 -45.32447 1.8256 3.33844 70.2456 80.50703 19.01865 -70.75456 -29.08385 1.54782 -2.71954 5.81833 -2.69322 -8.97783 -0.25776 -3.50378 -8.98109 -2.05155 7.2888 -0.85397 -7.68129 5.13146 4.79229 8.84655
0.00219 0.57912 0.00245 181.26863 0 -5.04942 3.7425 4.90064 -3.12405 -38.61926 1.50844 4.31325 -36.58227 -69.90068 -80.09451 15.05035 41.52223 -45.16686 1.80984 4.21515 70.16014 80.62507 19.10433 -71.42925 -28.80353 1.64487 -2.63817 5.80331 -2.65736 -9.06993 -0.24598 -3.50833 -9.01974 -1.98713 7.27091 -0.90922 -7.73049 5.12458 4.7993 8.87114
0.00288 0.57912 0.00257 181.2861 0 -5.04511 3.65302 4.8831 -3.10402 -38.88868 1.49942 4.23109 -34.98474 -69.7765 -80.29917 15.61064 41.94926 -44.983 1.74937 5.90262 69.81663 81.37011 19.3551 -73.61499 -28.41683 1.93391 -2.53045 5.78773 -2.62634 -9.1499 -0.24189 -3.49771 -9.05631 -1.88886 7.25272 -0.95972 -7.77945 5.10334 4.80966 8.8916
0.00372 0.57913 0.00268 181.30421 0 -5.04174 3.52462 4.86718 -3.08368 -39.18749 1.49268 4.12754 -32.93009 -69.59375 -80.56902 16.31572 42.59398 -44.73336 1.65908 7.89614 69.35797 82.26285 19.65945 -76.30366 -27.99535 2.29183 -2.40911 5.77239 -2.59525 -9.22761 -0.24034 -3.48287 -9.09399 -1.77483 7.23489 -1.0077 -7.82943 5.07745 4.82008 8.90926
0.00451 0.57913 0.0028 181.3219 0 -5.03847 3.40512 4.85119 -3.06327 -39.47397 1.48333 4.03619 -30.94915 -69.40892 -80.83633 16.95601 43.28496 -44.44599 1.56628 9.75073 68.92959 82.99263 19.93204 -78.69471 -27.5997 2.61612 -2.29064 5.75753 -2.5623 -9.30759 -0.23766 -3.47149 -9.13312 -1.66499 7.21754 -1.05523 -7.8796 5.0546 4.82863 8.9262
0.00519 0.57915 0.00292 181.33986 0 -5.03301 3.32404 4.83239 -3.04363 -39.75701 1.4807 3.9341 -29.51845 -69.34974 -81.00777 17.598 43.37724 -44.44148 1.54033 11.60686 68.59936 84.13059 20.23886 -81.37539 -27.16634 2.95134 -2.18649 5.74031 -2.5365 -9.38207 -0.23518 -3.4537 -9.16435 -1.56844 7.19751 -1.11025 -7.92606 5.02739 4.84484 8.95243
0.00615 0.57913 0.00304 181.35766 0 -5.03228 3.15172 4.8198 -3.02225 -40.05432 1.46455 3.84954 -26.85106 -69.00956 -81.37144 18.26378 44.75155 -43.83529 1.36905 13.5343 68.03115 84.44945 20.48381 -83.57809 -26.79666 3.27929 -2.04845 5.72793 -2.49655 -9.46822 -0.23245 -3.44816 -9.21201 -1.4393 7.18309 -1.14854 -7.98173 5.00855 4.84538 8.95792
